<?xml version="1.0" encoding="UTF-8" standalone="no"?> <svg width="64" height="64" viewBox="0 0 64 64" fill="none" xmlns="http://www.w3.org/2000/svg">
<path d="M38.5 12.17V4C38.5 3.60218 38.342 3.22064 38.0607 2.93934C37.7794 2.65804 37.3978 2.5 37 2.5H27C26.6022 2.5 26.2206 2.65804 25.9393 2.93934C25.658 3.22064 25.5 3.60218 25.5 4V12.17C20.0579 13.6116 15.2446 16.811 11.8086 21.2706C8.37253 25.7302 6.50627 31.2002 6.5 36.83V42C6.5 42.3978 6.65804 42.7794 6.93934 43.0607C7.22064 43.342 7.60218 43.5 8 43.5H14.25V56.93C14.25 58.142 14.7315 59.3044 15.5885 60.1615C16.4456 61.0185 17.608 61.5 18.82 61.5C20.032 61.5 21.1944 61.0185 22.0515 60.1615C22.9085 59.3044 23.39 58.142 23.39 56.93V43.5H40.61V56.93C40.61 58.142 41.0915 59.3044 41.9485 60.1615C42.8056 61.0185 43.968 61.5 45.18 61.5C46.392 61.5 47.5544 61.0185 48.4115 60.1615C49.2685 59.3044 49.75 58.142 49.75 56.93V43.5H56C56.3978 43.5 56.7794 43.342 57.0607 43.0607C57.342 42.7794 57.5 42.3978 57.5 42V36.83C57.4937 31.2002 55.6275 25.7302 52.1914 21.2706C48.7554 16.811 43.9421 13.6116 38.5 12.17V12.17ZM28.5 5.5H35.5V11.58C33.1786 11.2466 30.8214 11.2466 28.5 11.58V5.5ZM20.39 56.93C20.39 57.3464 20.2246 57.7457 19.9302 58.0402C19.6357 58.3346 19.2364 58.5 18.82 58.5C18.4036 58.5 18.0043 58.3346 17.7098 58.0402C17.4154 57.7457 17.25 57.3464 17.25 56.93V43.5H20.39V56.93ZM46.75 56.93C46.75 57.3464 46.5846 57.7457 46.2902 58.0402C45.9957 58.3346 45.5964 58.5 45.18 58.5C44.7636 58.5 44.3643 58.3346 44.0698 58.0402C43.7754 57.7457 43.61 57.3464 43.61 56.93V43.5H46.75V56.93ZM54.5 40.5H9.5V36.83C9.5 30.8626 11.8705 25.1397 16.0901 20.9201C20.3097 16.7005 26.0326 14.33 32 14.33C37.9674 14.33 43.6903 16.7005 47.9099 20.9201C52.1295 25.1397 54.5 30.8626 54.5 36.83V40.5Z" fill="black"/>
</svg>
